<?xml version="1.0" standalone="no"?>
<!DOCTYPE svg PUBLIC "-//W3C//DTD SVG 20010904//EN"
 "http://www.w3.org/TR/2001/REC-SVG-20010904/DTD/svg10.dtd">
<svg version="1.0" xmlns="http://www.w3.org/2000/svg"
 width="16.000000pt" height="16.000000pt" viewBox="0 0 16.000000 16.000000"
 preserveAspectRatio="xMidYMid meet">
<metadata>
Created by potrace 1.11, written by Peter Selinger 2001-2013
</metadata>
<g transform="translate(0.000000,16.000000) scale(0.003125,-0.003125)"
fill="#000000" stroke="none">
<path d="M3052 5108 c-24 -5 -69 -25 -100 -43 -42 -25 -424 -401 -1473 -1452
-1581 -1584 -1458 -1448 -1467 -1609 -5 -94 12 -168 55 -231 24 -36 398 -422
423 -438 5 -3 33 13 62 36 104 82 217 119 366 119 164 0 285 -51 402 -169 124
-125 171 -239 171 -416 0 -74 -5 -118 -21 -168 -22 -70 -77 -174 -105 -197
-47 -39 -47 -39 170 -255 113 -112 226 -217 251 -231 102 -60 250 -66 358 -16
57 27 180 148 1469 1439 775 776 1421 1428 1436 1449 47 65 65 128 65 224 -1
153 -12 169 -267 427 l-220 222 -53 -44 c-164 -133 -407 -163 -602 -75 -157
72 -282 221 -327 390 -19 73 -19 208 1 289 20 79 75 188 114 228 16 15 30 33
30 38 0 13 -395 405 -437 434 -72 49 -204 70 -301 49z m-27 -878 c20 -7 228
-208 617 -598 563 -563 587 -589 595 -632 10 -61 6 -94 -16 -138 -11 -21 -444
-460 -983 -998 -706 -706 -972 -965 -997 -973 -47 -15 -105 -14 -148 4 -46 19
-1180 1156 -1199 1202 -20 46 -17 110 6 157 13 28 333 354 987 1008 920 919
970 967 1013 976 48 9 76 7 125 -8z"/>
<path d="M2088 3043 c-475 -475 -862 -870 -860 -876 4 -13 934 -947 943 -947
10 0 1724 1720 1724 1730 0 5 -213 223 -472 484 l-473 474 -862 -865z"/>
</g>
</svg>
